<svg width="722" height="180" viewBox="0 0 722 180" fill="none" xmlns="http://www.w3.org/2000/svg">
<path d="M122.5 180H61.5C40.6667 180 25.1667 175.833 15 167.5C5 159.167 5.1409e-07 146.333 5.1409e-07 129V51.25C5.1409e-07 33.9167 5 21.0833 15 12.75C25.1667 4.24999 40.6667 -7.15256e-06 61.5 -7.15256e-06H122.5C125.667 -7.15256e-06 127.917 0.749993 129.25 2.24999C130.75 3.58333 131.5 5.83333 131.5 9V39.25C131.5 42.4167 130.75 44.75 129.25 46.25C127.917 47.5833 125.667 48.25 122.5 48.25H72.25C67.0833 48.25 63.25 49.3333 60.75 51.5C58.25 53.5 57 56.5833 57 60.75V120.25C57 124.417 58.25 127.5 60.75 129.5C63.25 131.333 67.0833 132.25 72.25 132.25H122.5C125.667 132.25 127.917 133 129.25 134.5C130.75 135.833 131.5 138.083 131.5 141.25V171C131.5 174.167 130.75 176.5 129.25 178C127.917 179.333 125.667 180 122.5 180ZM108.75 155H67C52 155 42 152.75 37 148.25C32 143.75 29.5 136.083 29.5 125.25V55.25C29.5 44.25 32.0833 36.5 37.25 32C42.4167 27.3333 52.3333 25 67 25H108.75V22.5H67C51 22.5 40.3333 25 35 30C29.6667 35 27 43.4167 27 55.25V125.25C27 136.75 29.5833 145 34.75 150C40.0833 155 50.8333 157.5 67 157.5H108.75V155ZM206.732 157.5H209.232V91.25H305.232V157.5H307.732V22.5H305.232V88.75H209.232V22.5H206.732V157.5ZM227.482 180H188.732C185.566 180 183.232 179.333 181.732 178C180.399 176.5 179.732 174.167 179.732 171V9C179.732 5.83333 180.399 3.58333 181.732 2.24999C183.232 0.749993 185.566 -7.15256e-06 188.732 -7.15256e-06H227.482C230.649 -7.15256e-06 232.899 0.749993 234.232 2.24999C235.732 3.58333 236.482 5.83333 236.482 9V63.25H278.232V9C278.232 5.83333 278.899 3.58333 280.232 2.24999C281.732 0.749993 284.066 -7.15256e-06 287.232 -7.15256e-06H325.982C329.149 -7.15256e-06 331.399 0.749993 332.732 2.24999C334.232 3.58333 334.982 5.83333 334.982 9V171C334.982 174.167 334.232 176.5 332.732 178C331.399 179.333 329.149 180 325.982 180H287.232C284.066 180 281.732 179.333 280.232 178C278.899 176.5 278.232 174.167 278.232 171V115.5H236.482V171C236.482 174.167 235.732 176.5 234.232 178C232.899 179.333 230.649 180 227.482 180ZM414.68 104.25C414.68 99.75 415.013 95.5833 415.68 91.75C416.513 87.9167 417.513 84.3333 418.68 81L434.68 40C436.346 35.8333 438.18 32.3333 440.18 29.5C442.18 26.5 445.68 25 450.68 25H475.18C479.846 25 483.18 26.5 485.18 29.5C487.18 32.3333 489.096 35.9167 490.93 40.25L508.18 81C509.346 84.3333 510.263 87.9167 510.93 91.75C511.763 95.5833 512.18 99.75 512.18 104.25V112H414.68V104.25ZM454.68 52.5L442.93 90.5H482.18L470.43 52.5C469.763 51 469.013 49.9167 468.18 49.25C467.513 48.5833 466.68 48.25 465.68 48.25H459.43C458.43 48.25 457.513 48.5833 456.68 49.25C456.013 49.9167 455.346 51 454.68 52.5ZM512.18 157.5H514.68V104.25C514.68 99.5833 514.263 95.3333 513.43 91.5C512.763 87.5 511.763 83.6667 510.43 80L493.18 39.25C491.18 34.4167 489.013 30.4167 486.68 27.25C484.513 24.0833 480.68 22.5 475.18 22.5H450.68C445.013 22.5 441.013 24.0833 438.68 27.25C436.346 30.4167 434.263 34.3333 432.43 39L416.43 80C415.096 83.6667 414.013 87.5 413.18 91.5C412.513 95.3333 412.18 99.5833 412.18 104.25V157.5H414.68V114.5H512.18V157.5ZM440.43 171C440.43 174.167 439.68 176.5 438.18 178C436.846 179.333 434.596 180 431.43 180H394.68C391.513 180 389.18 179.333 387.68 178C386.346 176.5 385.68 174.167 385.68 171V105C385.68 100 386.43 94.25 387.93 87.75C389.596 81.25 392.096 73.6667 395.43 65L417.18 8.24999C418.18 5.41665 419.68 3.33332 421.68 2C423.846 0.666661 426.596 -7.15256e-06 429.93 -7.15256e-06H497.18C500.346 -7.15256e-06 502.93 0.666661 504.93 2C507.096 3.33332 508.68 5.41665 509.68 8.24999L531.43 65C534.763 73.6667 537.18 81.25 538.68 87.75C540.346 94.25 541.18 100 541.18 105V171C541.18 174.167 540.43 176.5 538.93 178C537.596 179.333 535.346 180 532.18 180H494.43C491.096 180 488.596 179.333 486.93 178C485.43 176.5 484.68 174.167 484.68 171V136H440.43V171ZM667.037 180H626.537C623.37 180 621.037 179.333 619.537 178C618.204 176.5 617.537 174.167 617.537 171V48.25H580.787C577.62 48.25 575.287 47.5833 573.787 46.25C572.454 44.75 571.787 42.4167 571.787 39.25V9C571.787 5.83333 572.454 3.58333 573.787 2.24999C575.287 0.749993 577.62 -7.15256e-06 580.787 -7.15256e-06H712.787C715.954 -7.15256e-06 718.204 0.749993 719.537 2.24999C721.037 3.58333 721.787 5.83333 721.787 9V39.25C721.787 42.4167 721.037 44.75 719.537 46.25C718.204 47.5833 715.954 48.25 712.787 48.25H676.037V171C676.037 174.167 675.287 176.5 673.787 178C672.454 179.333 670.204 180 667.037 180ZM645.537 157.5H648.037V25H699.287V22.5H594.287V25H645.537V157.5Z" fill="black"/>
</svg>
