<svg width="1321" height="180" viewBox="0 0 1321 180" fill="none" xmlns="http://www.w3.org/2000/svg">
<path d="M136.25 180H9C5.83333 180 3.5 179.333 2 178C0.666668 176.5 1.43051e-06 174.167 1.43051e-06 171V9C1.43051e-06 5.83333 0.666668 3.58333 2 2.24999C3.5 0.749993 5.83333 -7.15256e-06 9 -7.15256e-06H47.75C50.9167 -7.15256e-06 53.1667 0.749993 54.5 2.24999C56 3.58333 56.75 5.83333 56.75 9V132.75H91V92.25C91 89.0833 91.6667 86.8333 93 85.5C94.5 84 96.8333 83.25 100 83.25H136.25C139.417 83.25 141.667 84 143 85.5C144.5 86.8333 145.25 89.0833 145.25 92.25V171C145.25 174.167 144.5 176.5 143 178C141.667 179.333 139.417 180 136.25 180ZM27.25 157.5H119.25V105.75H116.75V155H29.75V22.5H27.25V157.5ZM198.828 180C195.661 180 193.328 179.333 191.828 178C190.495 176.5 189.828 174.167 189.828 171V141.25C189.828 138.083 190.495 135.833 191.828 134.5C193.328 133 195.661 132.25 198.828 132.25H223.578V48.25H198.828C195.661 48.25 193.328 47.5833 191.828 46.25C190.495 44.75 189.828 42.4167 189.828 39.25V9C189.828 5.83333 190.495 3.58333 191.828 2.24999C193.328 0.749993 195.661 -7.15256e-06 198.828 -7.15256e-06H305.328C308.495 -7.15256e-06 310.745 0.749993 312.078 2.24999C313.578 3.58333 314.328 5.83333 314.328 9V39.25C314.328 42.4167 313.578 44.75 312.078 46.25C310.745 47.5833 308.495 48.25 305.328 48.25H281.078V132.25H305.328C308.495 132.25 310.745 133 312.078 134.5C313.578 135.833 314.328 138.083 314.328 141.25V171C314.328 174.167 313.578 176.5 312.078 178C310.745 179.333 308.495 180 305.328 180H198.828ZM291.828 157.5V155H253.578V25H291.828V22.5H212.328V25H251.078V155H212.328V157.5H291.828ZM470.195 180H374.195C371.029 180 368.695 179.333 367.195 178C365.862 176.5 365.195 174.167 365.195 171V9C365.195 5.83333 365.862 3.58333 367.195 2.24999C368.695 0.749993 371.029 -7.15256e-06 374.195 -7.15256e-06H453.945C470.279 -7.15256e-06 482.362 3.16666 490.195 9.49999C498.029 15.6667 501.945 25.25 501.945 38.25V50.25C501.945 57.25 500.695 63 498.195 67.5C495.862 71.8333 492.195 75.0833 487.195 77.25C497.862 78.25 505.779 81.9167 510.945 88.25C516.112 94.5833 518.695 103.833 518.695 116V139C518.695 153 514.695 163.333 506.695 170C498.862 176.667 486.695 180 470.195 180ZM392.945 157.5H460.195C467.195 157.5 472.862 156.917 477.195 155.75C481.529 154.417 484.779 152.667 486.945 150.5C489.279 148.333 490.862 145.75 491.695 142.75C492.529 139.583 492.945 136.167 492.945 132.5V116.5C492.945 112.333 492.529 108.5 491.695 105C491.029 101.5 489.529 98.5 487.195 96C484.862 93.3333 481.529 91.3333 477.195 90C472.862 88.5 467.279 87.75 460.445 87.75C467.612 85.9167 472.029 82.9167 473.695 78.75C475.529 74.5833 476.445 70 476.445 65V49C476.445 45.3333 476.029 41.9167 475.195 38.75C474.362 35.5833 472.779 32.8333 470.445 30.5C468.112 28 464.779 26.0833 460.445 24.75C456.112 23.25 450.529 22.5 443.695 22.5H392.945V157.5ZM443.695 25C456.195 25 464.362 27.3333 468.195 32C472.029 36.6667 473.945 42.3333 473.945 49V65C473.945 68 473.612 70.9167 472.945 73.75C472.445 76.4167 471.112 78.8333 468.945 81C466.945 83 463.945 84.6667 459.945 86C455.945 87.1667 450.529 87.75 443.695 87.75H395.445V25H443.695ZM421.445 42.5V69.5H442.695C445.862 69.5 448.195 68.6667 449.695 67C451.362 65.3333 452.195 62.8333 452.195 59.5V52.5C452.195 49.1667 451.362 46.6667 449.695 45C448.195 43.3333 445.862 42.5 442.695 42.5H421.445ZM460.445 90.25C472.945 90.25 481.029 92.75 484.695 97.75C488.529 102.75 490.445 109 490.445 116.5V132.5C490.445 139.333 488.529 144.833 484.695 149C480.862 153 472.695 155 460.195 155H395.445V90.25H460.445ZM421.445 108V137.5H453.945C457.112 137.5 459.445 136.667 460.945 135C462.612 133.333 463.445 130.833 463.445 127.5V117.75C463.445 114.417 462.612 112 460.945 110.5C459.445 108.833 457.112 108 453.945 108H421.445ZM650.348 25C659.181 25 665.681 27.4167 669.848 32.25C674.181 37.0833 676.348 43.3333 676.348 51V68.5C676.348 77.6667 674.598 84.75 671.098 89.75C667.598 94.75 660.681 97.25 650.348 97.25H595.848V25H650.348ZM622.848 45V77H641.598C645.931 77 648.848 75.9167 650.348 73.75C651.848 71.4167 652.598 68.5833 652.598 65.25V56.75C652.598 53.4167 651.848 50.6667 650.348 48.5C648.848 46.1667 645.931 45 641.598 45H622.848ZM595.848 157.5V99.5H666.598C676.098 99.5 683.098 101.583 687.598 105.75C692.098 109.75 694.348 115.833 694.348 124V157.5H696.848V124C696.848 115.333 694.348 108.75 689.348 104.25C684.348 99.5833 676.764 97.25 666.598 97.25H663.848C669.848 95.4167 673.848 92.0833 675.848 87.25C677.848 82.25 678.848 75.9167 678.848 68.25V51C678.848 42.8333 676.514 36.0833 671.848 30.75C667.181 25.25 660.014 22.5 650.348 22.5H593.348V157.5H595.848ZM613.848 180H575.348C572.181 180 569.848 179.333 568.348 178C567.014 176.5 566.348 174.167 566.348 171V9C566.348 5.83333 567.014 3.58333 568.348 2.24999C569.848 0.749993 572.181 -7.15256e-06 575.348 -7.15256e-06H658.598C677.264 -7.15256e-06 690.098 3.91666 697.098 11.75C704.264 19.4167 707.848 29.4167 707.848 41.75V53.25C707.848 60.25 706.764 66.25 704.598 71.25C702.598 76.0833 699.014 79.5833 693.848 81.75C702.848 82.75 710.098 86.4167 715.598 92.75C721.264 99.0833 724.098 107.5 724.098 118V171C724.098 174.167 723.348 176.5 721.848 178C720.514 179.333 718.264 180 715.098 180H676.348C673.181 180 670.848 179.333 669.348 178C668.014 176.5 667.348 174.167 667.348 171V132.75C667.348 129.083 666.598 126.417 665.098 124.75C663.764 122.917 661.348 122 657.848 122H622.848V171C622.848 174.167 622.098 176.5 620.598 178C619.264 179.333 617.014 180 613.848 180ZM797.389 104.25C797.389 99.75 797.722 95.5833 798.389 91.75C799.222 87.9167 800.222 84.3333 801.389 81L817.389 40C819.055 35.8333 820.889 32.3333 822.889 29.5C824.889 26.5 828.389 25 833.389 25H857.889C862.555 25 865.889 26.5 867.889 29.5C869.889 32.3333 871.805 35.9167 873.639 40.25L890.889 81C892.055 84.3333 892.972 87.9167 893.639 91.75C894.472 95.5833 894.889 99.75 894.889 104.25V112H797.389V104.25ZM837.389 52.5L825.639 90.5H864.889L853.139 52.5C852.472 51 851.722 49.9167 850.889 49.25C850.222 48.5833 849.389 48.25 848.389 48.25H842.139C841.139 48.25 840.222 48.5833 839.389 49.25C838.722 49.9167 838.055 51 837.389 52.5ZM894.889 157.5H897.389V104.25C897.389 99.5833 896.972 95.3333 896.139 91.5C895.472 87.5 894.472 83.6667 893.139 80L875.889 39.25C873.889 34.4167 871.722 30.4167 869.389 27.25C867.222 24.0833 863.389 22.5 857.889 22.5H833.389C827.722 22.5 823.722 24.0833 821.389 27.25C819.055 30.4167 816.972 34.3333 815.139 39L799.139 80C797.805 83.6667 796.722 87.5 795.889 91.5C795.222 95.3333 794.889 99.5833 794.889 104.25V157.5H797.389V114.5H894.889V157.5ZM823.139 171C823.139 174.167 822.389 176.5 820.889 178C819.555 179.333 817.305 180 814.139 180H777.389C774.222 180 771.889 179.333 770.389 178C769.055 176.5 768.389 174.167 768.389 171V105C768.389 100 769.139 94.25 770.639 87.75C772.305 81.25 774.805 73.6667 778.139 65L799.889 8.24999C800.889 5.41665 802.389 3.33332 804.389 2C806.555 0.666661 809.305 -7.15256e-06 812.639 -7.15256e-06H879.889C883.055 -7.15256e-06 885.639 0.666661 887.639 2C889.805 3.33332 891.389 5.41665 892.389 8.24999L914.139 65C917.472 73.6667 919.889 81.25 921.389 87.75C923.055 94.25 923.889 100 923.889 105V171C923.889 174.167 923.139 176.5 921.639 178C920.305 179.333 918.055 180 914.889 180H877.139C873.805 180 871.305 179.333 869.639 178C868.139 176.5 867.389 174.167 867.389 171V136H823.139V171ZM1058.76 25C1067.59 25 1074.09 27.4167 1078.26 32.25C1082.59 37.0833 1084.76 43.3333 1084.76 51V68.5C1084.76 77.6667 1083.01 84.75 1079.51 89.75C1076.01 94.75 1069.09 97.25 1058.76 97.25H1004.26V25H1058.76ZM1031.26 45V77H1050.01C1054.34 77 1057.26 75.9167 1058.76 73.75C1060.26 71.4167 1061.01 68.5833 1061.01 65.25V56.75C1061.01 53.4167 1060.26 50.6667 1058.76 48.5C1057.26 46.1667 1054.34 45 1050.01 45H1031.26ZM1004.26 157.5V99.5H1075.01C1084.51 99.5 1091.51 101.583 1096.01 105.75C1100.51 109.75 1102.76 115.833 1102.76 124V157.5H1105.26V124C1105.26 115.333 1102.76 108.75 1097.76 104.25C1092.76 99.5833 1085.17 97.25 1075.01 97.25H1072.26C1078.26 95.4167 1082.26 92.0833 1084.26 87.25C1086.26 82.25 1087.26 75.9167 1087.26 68.25V51C1087.26 42.8333 1084.92 36.0833 1080.26 30.75C1075.59 25.25 1068.42 22.5 1058.76 22.5H1001.76V157.5H1004.26ZM1022.26 180H983.756C980.589 180 978.256 179.333 976.756 178C975.423 176.5 974.756 174.167 974.756 171V9C974.756 5.83333 975.423 3.58333 976.756 2.24999C978.256 0.749993 980.589 -7.15256e-06 983.756 -7.15256e-06H1067.01C1085.67 -7.15256e-06 1098.51 3.91666 1105.51 11.75C1112.67 19.4167 1116.26 29.4167 1116.26 41.75V53.25C1116.26 60.25 1115.17 66.25 1113.01 71.25C1111.01 76.0833 1107.42 79.5833 1102.26 81.75C1111.26 82.75 1118.51 86.4167 1124.01 92.75C1129.67 99.0833 1132.51 107.5 1132.51 118V171C1132.51 174.167 1131.76 176.5 1130.26 178C1128.92 179.333 1126.67 180 1123.51 180H1084.76C1081.59 180 1079.26 179.333 1077.76 178C1076.42 176.5 1075.76 174.167 1075.76 171V132.75C1075.76 129.083 1075.01 126.417 1073.51 124.75C1072.17 122.917 1069.76 122 1066.26 122H1031.26V171C1031.26 174.167 1030.51 176.5 1029.01 178C1027.67 179.333 1025.42 180 1022.26 180ZM1264.23 180H1223.73C1220.56 180 1218.23 179.333 1216.73 178C1215.4 176.5 1214.73 174.167 1214.73 171V139L1176.48 87.75C1172.65 82.5833 1170.06 78.0833 1168.73 74.25C1167.56 70.4167 1166.98 64.6667 1166.98 57V9C1166.98 5.83333 1167.65 3.58333 1168.98 2.24999C1170.48 0.749993 1172.81 -7.15256e-06 1175.98 -7.15256e-06H1214.48C1217.65 -7.15256e-06 1219.9 0.749993 1221.23 2.24999C1222.73 3.58333 1223.48 5.83333 1223.48 9V50C1223.48 51.6667 1223.56 53.4167 1223.73 55.25C1223.9 57.0833 1224.56 58.8333 1225.73 60.5L1237.23 78.5C1238.06 80 1238.9 81.0833 1239.73 81.75C1240.73 82.4167 1241.9 82.75 1243.23 82.75H1245.73C1247.06 82.75 1248.15 82.4167 1248.98 81.75C1249.98 81.0833 1250.9 80 1251.73 78.5L1263.23 60.5C1264.4 58.8333 1265.06 57.0833 1265.23 55.25C1265.4 53.4167 1265.48 51.6667 1265.48 50V9C1265.48 5.83333 1266.15 3.58333 1267.48 2.24999C1268.98 0.749993 1271.31 -7.15256e-06 1274.48 -7.15256e-06H1311.73C1314.9 -7.15256e-06 1317.15 0.749993 1318.48 2.24999C1319.98 3.58333 1320.73 5.83333 1320.73 9V57C1320.73 64.6667 1320.06 70.4167 1318.73 74.25C1317.4 78.0833 1314.9 82.5833 1311.23 87.75L1273.23 139.25V171C1273.23 174.167 1272.48 176.5 1270.98 178C1269.65 179.333 1267.4 180 1264.23 180ZM1246.98 114.75C1250.81 114.75 1254.15 113.917 1256.98 112.25C1259.98 110.583 1262.81 107.917 1265.48 104.25L1290.48 70.5C1292.48 67.8333 1293.56 64.9167 1293.73 61.75C1294.06 58.4167 1294.23 54.9167 1294.23 51.25V22.5H1291.73V51.25C1291.73 54.75 1291.56 58.1667 1291.23 61.5C1290.9 64.6667 1289.9 67.3333 1288.23 69.5L1263.23 103.25C1260.73 106.417 1258.15 108.75 1255.48 110.25C1252.98 111.583 1250.15 112.25 1246.98 112.25H1240.23C1237.4 112.25 1234.56 111.583 1231.73 110.25C1228.9 108.917 1226.4 106.583 1224.23 103.25L1199.98 69.5C1198.31 67 1197.31 64.25 1196.98 61.25C1196.65 58.0833 1196.48 54.75 1196.48 51.25V22.5H1193.98V51.25C1193.98 54.9167 1194.15 58.4167 1194.48 61.75C1194.81 65.0833 1195.9 68 1197.73 70.5L1221.98 104.25C1224.65 107.917 1227.4 110.583 1230.23 112.25C1233.23 113.917 1236.56 114.75 1240.23 114.75H1242.73V157.5H1245.23V114.75H1246.98Z" fill="black"/>
</svg>
