<svg width="978" height="188" viewBox="0 0 978 188" fill="none" xmlns="http://www.w3.org/2000/svg">
<path d="M88 87.5C85 87.5 82.8333 86.8333 81.5 85.5C80.1667 84.1667 78.0833 81.3333 75.25 77L44.75 30.5C43.75 28.8333 42.5833 27.75 41.25 27.25C39.9167 26.5833 38.5833 26.25 37.25 26.25H33C30.8333 26.25 29.1667 26.9167 28 28.25C27 29.4167 26.5 31.3333 26.5 34V161.25H29V34C29 32.6667 29.25 31.5 29.75 30.5C30.25 29.3333 31.3333 28.75 33 28.75H36.75C37.9167 28.75 38.9167 28.9167 39.75 29.25C40.75 29.5833 41.75 30.5833 42.75 32.25L73.25 78.25C76.25 82.75 78.5 85.8333 80 87.5C81.6667 89.1667 84.3333 90 88 90C91.6667 90 94.25 89.1667 95.75 87.5C97.4167 85.8333 99.75 82.75 102.75 78.25L133.25 32.25C134.25 30.5833 135.167 29.5833 136 29.25C136.833 28.9167 137.833 28.75 139 28.75H142.75C144.417 28.75 145.5 29.3333 146 30.5C146.667 31.5 147 32.6667 147 34V161.25H149.5V34C149.5 31.3333 148.917 29.4167 147.75 28.25C146.75 26.9167 145.083 26.25 142.75 26.25H138.5C137.167 26.25 135.833 26.5833 134.5 27.25C133.333 27.75 132.25 28.8333 131.25 30.5L100.75 77C97.9167 81.3333 95.8333 84.1667 94.5 85.5C93.1667 86.8333 91 87.5 88 87.5ZM46.25 183.75H9C5.83333 183.75 3.5 183.083 2 181.75C0.666668 180.25 1.43051e-06 177.917 1.43051e-06 174.75V12.75C1.43051e-06 9.58333 0.666668 7.33333 2 5.99999C3.5 4.49999 5.83333 3.74999 9 3.74999H49.25C51.9167 3.74999 54.0833 4.33332 55.75 5.49999C57.5833 6.66666 59.25 8.58332 60.75 11.25L83.25 52C84.0833 53.5 84.75 54.5833 85.25 55.25C85.9167 55.9167 86.75 56.25 87.75 56.25H90C91 56.25 91.75 55.9167 92.25 55.25C92.9167 54.5833 93.6667 53.5 94.5 52L116.75 11.25C118.25 8.58332 119.833 6.66666 121.5 5.49999C123.333 4.33332 125.583 3.74999 128.25 3.74999H168.75C171.917 3.74999 174.167 4.49999 175.5 5.99999C177 7.33333 177.75 9.58333 177.75 12.75V174.75C177.75 177.917 177 180.25 175.5 181.75C174.167 183.083 171.917 183.75 168.75 183.75H130.25C127.083 183.75 124.75 183.083 123.25 181.75C121.917 180.25 121.25 177.917 121.25 174.75V86.75L106.5 114C105 116.833 103.167 118.917 101 120.25C99 121.417 96.4167 122 93.25 122H83.25C80.0833 122 77.4167 121.417 75.25 120.25C73.25 118.917 71.5 116.833 70 114L55.25 86.75V174.75C55.25 177.917 54.5 180.25 53 181.75C51.6667 183.083 49.4167 183.75 46.25 183.75ZM384.658 136.5C384.658 144.167 383.492 151.167 381.158 157.5C378.992 163.667 374.992 169 369.158 173.5C363.492 177.833 355.575 181.25 345.408 183.75C335.408 186.25 322.658 187.5 307.158 187.5C291.658 187.5 278.825 186.25 268.658 183.75C258.492 181.25 250.492 177.833 244.658 173.5C238.992 169 234.992 163.667 232.658 157.5C230.492 151.167 229.408 144.167 229.408 136.5V51.25C229.408 43.5833 230.492 36.6667 232.658 30.5C234.992 24.1667 238.992 18.75 244.658 14.25C250.492 9.74999 258.492 6.24999 268.658 3.74999C278.825 1.25 291.658 -3.57628e-06 307.158 -3.57628e-06C322.658 -3.57628e-06 335.408 1.25 345.408 3.74999C355.575 6.24999 363.492 9.74999 369.158 14.25C374.992 18.75 378.992 24.1667 381.158 30.5C383.492 36.6667 384.658 43.5833 384.658 51.25V136.5ZM357.408 130.75V57C357.408 47 353.825 38.9167 346.658 32.75C339.492 26.4167 326.158 23.25 306.658 23.25C287.158 23.25 273.908 26.4167 266.908 32.75C259.908 38.9167 256.408 47 256.408 57V130.75C256.408 140.75 259.908 148.917 266.908 155.25C273.908 161.417 287.158 164.5 306.658 164.5C326.158 164.5 339.492 161.417 346.658 155.25C353.825 148.917 357.408 140.75 357.408 130.75ZM258.908 130.75V57C258.908 47.6667 262.242 40.1667 268.908 34.5C275.575 28.6667 288.158 25.75 306.658 25.75C325.158 25.75 337.825 28.6667 344.658 34.5C351.492 40.1667 354.908 47.6667 354.908 57V130.75C354.908 140.083 351.492 147.667 344.658 153.5C337.825 159.167 325.158 162 306.658 162C288.158 162 275.575 159.167 268.908 153.5C262.242 147.667 258.908 140.083 258.908 130.75ZM286.158 127.5C286.158 130.833 287.408 133.667 289.908 136C292.408 138.167 298.158 139.25 307.158 139.25C316.158 139.25 321.908 138.167 324.408 136C326.908 133.667 328.158 130.833 328.158 127.5V60.25C328.158 57.0833 326.908 54.4167 324.408 52.25C321.908 49.9167 316.158 48.75 307.158 48.75C298.158 48.75 292.408 49.9167 289.908 52.25C287.408 54.4167 286.158 57.0833 286.158 60.25V127.5ZM588.984 136.5C588.984 144.167 587.818 151.167 585.484 157.5C583.318 163.667 579.318 169 573.484 173.5C567.818 177.833 559.901 181.25 549.734 183.75C539.734 186.25 526.984 187.5 511.484 187.5C495.984 187.5 483.151 186.25 472.984 183.75C462.818 181.25 454.818 177.833 448.984 173.5C443.318 169 439.318 163.667 436.984 157.5C434.818 151.167 433.734 144.167 433.734 136.5V51.25C433.734 43.5833 434.818 36.6667 436.984 30.5C439.318 24.1667 443.318 18.75 448.984 14.25C454.818 9.74999 462.818 6.24999 472.984 3.74999C483.151 1.25 495.984 -3.57628e-06 511.484 -3.57628e-06C526.984 -3.57628e-06 539.734 1.25 549.734 3.74999C559.901 6.24999 567.818 9.74999 573.484 14.25C579.318 18.75 583.318 24.1667 585.484 30.5C587.818 36.6667 588.984 43.5833 588.984 51.25V136.5ZM561.734 130.75V57C561.734 47 558.151 38.9167 550.984 32.75C543.818 26.4167 530.484 23.25 510.984 23.25C491.484 23.25 478.234 26.4167 471.234 32.75C464.234 38.9167 460.734 47 460.734 57V130.75C460.734 140.75 464.234 148.917 471.234 155.25C478.234 161.417 491.484 164.5 510.984 164.5C530.484 164.5 543.818 161.417 550.984 155.25C558.151 148.917 561.734 140.75 561.734 130.75ZM463.234 130.75V57C463.234 47.6667 466.568 40.1667 473.234 34.5C479.901 28.6667 492.484 25.75 510.984 25.75C529.484 25.75 542.151 28.6667 548.984 34.5C555.818 40.1667 559.234 47.6667 559.234 57V130.75C559.234 140.083 555.818 147.667 548.984 153.5C542.151 159.167 529.484 162 510.984 162C492.484 162 479.901 159.167 473.234 153.5C466.568 147.667 463.234 140.083 463.234 130.75ZM490.484 127.5C490.484 130.833 491.734 133.667 494.234 136C496.734 138.167 502.484 139.25 511.484 139.25C520.484 139.25 526.234 138.167 528.734 136C531.234 133.667 532.484 130.833 532.484 127.5V60.25C532.484 57.0833 531.234 54.4167 528.734 52.25C526.234 49.9167 520.484 48.75 511.484 48.75C502.484 48.75 496.734 49.9167 494.234 52.25C491.734 54.4167 490.484 57.0833 490.484 60.25V127.5ZM747.311 183.75H682.311C679.144 183.75 676.477 183.167 674.311 182C672.311 180.833 670.727 178.667 669.561 175.5L645.061 114.25C643.561 110.583 642.311 107.417 641.311 104.75C640.311 101.917 639.477 99.25 638.811 96.75C638.144 94.25 637.644 91.6667 637.311 89C637.144 86.1667 637.061 82.75 637.061 78.75V12.75C637.061 9.58333 637.727 7.33333 639.061 5.99999C640.561 4.49999 642.894 3.74999 646.061 3.74999H685.811C688.977 3.74999 691.394 4.49999 693.061 5.99999C694.727 7.33333 695.561 9.58333 695.561 12.75V81.75C695.561 83.4167 695.727 85.0833 696.061 86.75C696.394 88.4167 696.894 90.1667 697.561 92L709.311 127C709.811 128.667 710.394 129.833 711.061 130.5C711.727 131 712.727 131.25 714.061 131.25H716.811C718.144 131.25 719.144 131 719.811 130.5C720.477 129.833 721.061 128.667 721.561 127L733.311 91.75C733.977 89.9167 734.477 88.1667 734.811 86.5C735.144 84.8333 735.311 83.1667 735.311 81.5V12.75C735.311 9.58333 735.977 7.33333 737.311 5.99999C738.811 4.49999 741.144 3.74999 744.311 3.74999H783.561C786.727 3.74999 788.977 4.49999 790.311 5.99999C791.811 7.33333 792.561 9.58333 792.561 12.75V78.75C792.561 82.75 792.394 86.1667 792.061 89C791.894 91.6667 791.477 94.25 790.811 96.75C790.144 99.25 789.311 101.917 788.311 104.75C787.311 107.417 786.061 110.583 784.561 114.25L760.061 175.5C758.894 178.667 757.227 180.833 755.061 182C753.061 183.167 750.477 183.75 747.311 183.75ZM665.311 26.25V80.25C665.311 84.9167 665.561 89.25 666.061 93.25C666.727 97.0833 667.811 100.833 669.311 104.5L685.811 144.5C687.811 149.333 690.061 153.333 692.561 156.5C695.061 159.667 698.894 161.25 704.061 161.25H726.061C731.227 161.25 735.061 159.667 737.561 156.5C740.061 153.333 742.311 149.333 744.311 144.5L760.811 104.5C762.311 100.833 763.311 97.0833 763.811 93.25C764.477 89.25 764.811 84.9167 764.811 80.25V26.25H762.311V80.25C762.311 84.5833 761.977 88.75 761.311 92.75C760.644 96.5833 759.644 100.167 758.311 103.5L741.811 143.5C740.144 147.833 738.227 151.5 736.061 154.5C734.061 157.333 730.727 158.75 726.061 158.75H704.061C699.394 158.75 695.977 157.333 693.811 154.5C691.811 151.5 689.977 147.833 688.311 143.5L671.811 103.5C670.477 100.167 669.477 96.5833 668.811 92.75C668.144 88.75 667.811 84.5833 667.811 80.25V26.25H665.311ZM968.428 183.75H852.428C849.261 183.75 846.928 183.083 845.428 181.75C844.094 180.25 843.428 177.917 843.428 174.75V12.75C843.428 9.58333 844.094 7.33333 845.428 5.99999C846.928 4.49999 849.261 3.74999 852.428 3.74999H968.428C971.594 3.74999 973.844 4.49999 975.178 5.99999C976.678 7.33333 977.428 9.58333 977.428 12.75V42C977.428 45.1667 976.678 47.5 975.178 49C973.844 50.3333 971.594 51 968.428 51H899.428V70.25H948.178C951.344 70.25 953.594 71 954.928 72.5C956.428 73.8333 957.178 76.0833 957.178 79.25V106C957.178 109.167 956.428 111.5 954.928 113C953.594 114.333 951.344 115 948.178 115H899.428V136.5H968.428C971.594 136.5 973.844 137.25 975.178 138.75C976.678 140.083 977.428 142.333 977.428 145.5V174.75C977.428 177.917 976.678 180.25 975.178 181.75C973.844 183.083 971.594 183.75 968.428 183.75ZM954.928 158.75H873.178V94H934.678V91.5H873.178V28.75H954.928V26.25H870.678V161.25H954.928V158.75Z" fill="black"/>
</svg>
