<svg width="1451" height="180" viewBox="0 0 1451 180" fill="none" xmlns="http://www.w3.org/2000/svg">
<path d="M88 180H9C5.83333 180 3.5 179.333 2 178C0.666667 176.5 6.92904e-07 174.167 6.92904e-07 171V141.75C6.92904e-07 138.583 0.666667 136.333 2 135C3.5 133.5 5.83333 132.75 9 132.75H76.25C78.4167 132.75 80 132.083 81 130.75C82.1667 129.25 82.75 127.5 82.75 125.5C82.75 122.667 82.1667 120.583 81 119.25C80 117.917 78.4167 117.167 76.25 117L38.75 111.75C27.0833 110.083 17.6667 106.25 10.5 100.25C3.5 94.25 6.92904e-07 84.25 6.92904e-07 70.25V44C6.92904e-07 29.8333 4.58333 19 13.75 11.5C22.9167 3.83333 35.5833 -7.15256e-06 51.75 -7.15256e-06H121.75C124.917 -7.15256e-06 127.167 0.749993 128.5 2.24999C130 3.58333 130.75 5.83333 130.75 9V38.75C130.75 41.9167 130 44.25 128.5 45.75C127.167 47.0833 124.917 47.75 121.75 47.75H63.5C61.3333 47.75 59.6667 48.5 58.5 50C57.3333 51.3333 56.75 53.0833 56.75 55.25C56.75 57.4167 57.3333 59.25 58.5 60.75C59.6667 62.25 61.3333 63.0833 63.5 63.25L100.75 68.25C112.417 69.9167 121.833 73.75 129 79.75C136.167 85.75 139.75 95.75 139.75 109.75V136C139.75 150.167 135.083 161.083 125.75 168.75C116.583 176.25 104 180 88 180ZM108.25 22.5H52.75C45.0833 22.5 38.9167 24.6667 34.25 29C29.5833 33.1667 27.25 38.5833 27.25 45.25V65.75C27.25 72.5833 28.5833 77.3333 31.25 80C34.0833 82.5 37.6667 84.1667 42 85L94.75 95.75C99.4167 96.75 103.083 98.75 105.75 101.75C108.583 104.583 110 109.917 110 117.75V132.25C110 138.917 107.667 144.417 103 148.75C98.5 152.917 92.4167 155 84.75 155H22.5V157.5H84.75C93.25 157.5 100 155.167 105 150.5C110 145.667 112.5 139.583 112.5 132.25V117.75C112.5 109.083 110.833 103.083 107.5 99.75C104.333 96.4167 100.25 94.25 95.25 93.25L42.5 82.5C38.6667 81.8333 35.5833 80.3333 33.25 78C30.9167 75.6667 29.75 71.5833 29.75 65.75V45.25C29.75 39.4167 31.8333 34.5833 36 30.75C40.1667 26.9167 45.75 25 52.75 25H108.25V22.5ZM312.098 180H196.098C192.931 180 190.598 179.333 189.098 178C187.764 176.5 187.098 174.167 187.098 171V9C187.098 5.83333 187.764 3.58333 189.098 2.24999C190.598 0.749993 192.931 -7.15256e-06 196.098 -7.15256e-06H312.098C315.264 -7.15256e-06 317.514 0.749993 318.848 2.24999C320.348 3.58333 321.098 5.83333 321.098 9V38.25C321.098 41.4167 320.348 43.75 318.848 45.25C317.514 46.5833 315.264 47.25 312.098 47.25H243.098V66.5H291.848C295.014 66.5 297.264 67.25 298.598 68.75C300.098 70.0833 300.848 72.3333 300.848 75.5V102.25C300.848 105.417 300.098 107.75 298.598 109.25C297.264 110.583 295.014 111.25 291.848 111.25H243.098V132.75H312.098C315.264 132.75 317.514 133.5 318.848 135C320.348 136.333 321.098 138.583 321.098 141.75V171C321.098 174.167 320.348 176.5 318.848 178C317.514 179.333 315.264 180 312.098 180ZM298.598 155H216.848V90.25H278.348V87.75H216.848V25H298.598V22.5H214.348V157.5H298.598V155ZM455.672 180H415.172C412.005 180 409.672 179.333 408.172 178C406.839 176.5 406.172 174.167 406.172 171V48.25H369.422C366.255 48.25 363.922 47.5833 362.422 46.25C361.089 44.75 360.422 42.4167 360.422 39.25V9C360.422 5.83333 361.089 3.58333 362.422 2.24999C363.922 0.749993 366.255 -7.15256e-06 369.422 -7.15256e-06H501.422C504.589 -7.15256e-06 506.839 0.749993 508.172 2.24999C509.672 3.58333 510.422 5.83333 510.422 9V39.25C510.422 42.4167 509.672 44.75 508.172 46.25C506.839 47.5833 504.589 48.25 501.422 48.25H464.672V171C464.672 174.167 463.922 176.5 462.422 178C461.089 179.333 458.839 180 455.672 180ZM434.172 157.5H436.672V25H487.922V22.5H382.922V25H434.172V157.5ZM639.734 180H599.234C596.068 180 593.734 179.333 592.234 178C590.901 176.5 590.234 174.167 590.234 171V48.25H553.484C550.318 48.25 547.984 47.5833 546.484 46.25C545.151 44.75 544.484 42.4167 544.484 39.25V9C544.484 5.83333 545.151 3.58333 546.484 2.24999C547.984 0.749993 550.318 -7.15256e-06 553.484 -7.15256e-06H685.484C688.651 -7.15256e-06 690.901 0.749993 692.234 2.24999C693.734 3.58333 694.484 5.83333 694.484 9V39.25C694.484 42.4167 693.734 44.75 692.234 46.25C690.901 47.5833 688.651 48.25 685.484 48.25H648.734V171C648.734 174.167 647.984 176.5 646.484 178C645.151 179.333 642.901 180 639.734 180ZM618.234 157.5H620.734V25H671.984V22.5H566.984V25H618.234V157.5ZM743.797 180C740.63 180 738.297 179.333 736.797 178C735.464 176.5 734.797 174.167 734.797 171V141.25C734.797 138.083 735.464 135.833 736.797 134.5C738.297 133 740.63 132.25 743.797 132.25H768.547V48.25H743.797C740.63 48.25 738.297 47.5833 736.797 46.25C735.464 44.75 734.797 42.4167 734.797 39.25V9C734.797 5.83333 735.464 3.58333 736.797 2.24999C738.297 0.749993 740.63 -7.15256e-06 743.797 -7.15256e-06H850.297C853.464 -7.15256e-06 855.714 0.749993 857.047 2.24999C858.547 3.58333 859.297 5.83333 859.297 9V39.25C859.297 42.4167 858.547 44.75 857.047 46.25C855.714 47.5833 853.464 48.25 850.297 48.25H826.047V132.25H850.297C853.464 132.25 855.714 133 857.047 134.5C858.547 135.833 859.297 138.083 859.297 141.25V171C859.297 174.167 858.547 176.5 857.047 178C855.714 179.333 853.464 180 850.297 180H743.797ZM836.797 157.5V155H798.547V25H836.797V22.5H757.297V25H796.047V155H757.297V157.5H836.797ZM943.164 24.5C942.331 23.6667 941.664 23.0833 941.164 22.75C940.664 22.4167 940.081 22.25 939.414 22.25C938.747 22.25 938.081 22.5 937.414 23C936.747 23.5 936.414 24.25 936.414 25.25V157.5H938.914V25.75C938.914 25.5833 938.914 25.4167 938.914 25.25C939.081 25.0833 939.247 25 939.414 25C939.581 25 939.747 25.0833 939.914 25.25C940.247 25.4167 940.497 25.5833 940.664 25.75L1035.16 131.75V157.5H1037.66V22.5H1035.16V128L943.164 24.5ZM956.664 180H919.164C915.997 180 913.664 179.333 912.164 178C910.831 176.5 910.164 174.167 910.164 171V9C910.164 5.83333 910.831 3.58333 912.164 2.24999C913.664 0.749993 915.997 -7.15256e-06 919.164 -7.15256e-06H945.164C948.331 -7.15256e-06 950.997 0.499991 953.164 1.49999C955.497 2.5 957.747 4.25 959.914 6.75L1008.41 62.25V9C1008.41 5.83333 1009.08 3.58333 1010.41 2.24999C1011.91 0.749993 1014.25 -7.15256e-06 1017.41 -7.15256e-06H1054.91C1058.08 -7.15256e-06 1060.33 0.749993 1061.66 2.24999C1063.16 3.58333 1063.91 5.83333 1063.91 9V171C1063.91 174.167 1063.16 176.5 1061.66 178C1060.33 179.333 1058.08 180 1054.91 180H1017.41C1014.25 180 1011.91 179.333 1010.41 178C1009.08 176.5 1008.41 174.167 1008.41 171V140.25L965.664 88.5V171C965.664 174.167 964.914 176.5 963.414 178C962.081 179.333 959.831 180 956.664 180ZM1255.9 180H1177.15C1156.31 180 1140.81 175.833 1130.65 167.5C1120.65 159.167 1115.65 146.333 1115.65 129V51C1115.65 33.6667 1120.65 20.8333 1130.65 12.5C1140.81 4.16666 1156.31 -7.15256e-06 1177.15 -7.15256e-06H1239.65C1242.81 -7.15256e-06 1245.06 0.749993 1246.4 2.24999C1247.9 3.58333 1248.65 5.83333 1248.65 9V39.25C1248.65 42.4167 1247.9 44.75 1246.4 46.25C1245.06 47.5833 1242.81 48.25 1239.65 48.25H1187.65C1182.48 48.25 1178.65 49.3333 1176.15 51.5C1173.65 53.5 1172.4 56.5833 1172.4 60.75V120.5C1172.4 124.667 1173.31 127.75 1175.15 129.75C1177.15 131.75 1180.06 132.75 1183.9 132.75H1208.15V93.75C1208.15 90.5833 1208.81 88.3333 1210.15 87C1211.65 85.5 1213.98 84.75 1217.15 84.75H1255.9C1259.06 84.75 1261.31 85.5 1262.65 87C1264.15 88.3333 1264.9 90.5833 1264.9 93.75V171C1264.9 174.167 1264.15 176.5 1262.65 178C1261.31 179.333 1259.06 180 1255.9 180ZM1187.9 157.5H1237.65V107.25H1235.15V155H1187.9C1171.06 155 1159.73 152.75 1153.9 148.25C1148.23 143.75 1145.4 136.083 1145.4 125.25V55.25C1145.4 44.25 1147.98 36.5 1153.15 32C1158.31 27.3333 1168.23 25 1182.9 25H1226.15V22.5H1182.9C1166.9 22.5 1156.23 25 1150.9 30C1145.56 35 1142.9 43.4167 1142.9 55.25V125.25C1142.9 131.083 1143.48 136.083 1144.65 140.25C1145.98 144.25 1148.31 147.583 1151.65 150.25C1154.98 152.75 1159.56 154.583 1165.4 155.75C1171.23 156.917 1178.73 157.5 1187.9 157.5ZM1398.9 180H1319.9C1316.73 180 1314.4 179.333 1312.9 178C1311.57 176.5 1310.9 174.167 1310.9 171V141.75C1310.9 138.583 1311.57 136.333 1312.9 135C1314.4 133.5 1316.73 132.75 1319.9 132.75H1387.15C1389.32 132.75 1390.9 132.083 1391.9 130.75C1393.07 129.25 1393.65 127.5 1393.65 125.5C1393.65 122.667 1393.07 120.583 1391.9 119.25C1390.9 117.917 1389.32 117.167 1387.15 117L1349.65 111.75C1337.98 110.083 1328.57 106.25 1321.4 100.25C1314.4 94.25 1310.9 84.25 1310.9 70.25V44C1310.9 29.8333 1315.48 19 1324.65 11.5C1333.82 3.83333 1346.48 -7.15256e-06 1362.65 -7.15256e-06H1432.65C1435.82 -7.15256e-06 1438.07 0.749993 1439.4 2.24999C1440.9 3.58333 1441.65 5.83333 1441.65 9V38.75C1441.65 41.9167 1440.9 44.25 1439.4 45.75C1438.07 47.0833 1435.82 47.75 1432.65 47.75H1374.4C1372.23 47.75 1370.57 48.5 1369.4 50C1368.23 51.3333 1367.65 53.0833 1367.65 55.25C1367.65 57.4167 1368.23 59.25 1369.4 60.75C1370.57 62.25 1372.23 63.0833 1374.4 63.25L1411.65 68.25C1423.32 69.9167 1432.73 73.75 1439.9 79.75C1447.07 85.75 1450.65 95.75 1450.65 109.75V136C1450.65 150.167 1445.98 161.083 1436.65 168.75C1427.48 176.25 1414.9 180 1398.9 180ZM1419.15 22.5H1363.65C1355.98 22.5 1349.82 24.6667 1345.15 29C1340.48 33.1667 1338.15 38.5833 1338.15 45.25V65.75C1338.15 72.5833 1339.48 77.3333 1342.15 80C1344.98 82.5 1348.57 84.1667 1352.9 85L1405.65 95.75C1410.32 96.75 1413.98 98.75 1416.65 101.75C1419.48 104.583 1420.9 109.917 1420.9 117.75V132.25C1420.9 138.917 1418.57 144.417 1413.9 148.75C1409.4 152.917 1403.32 155 1395.65 155H1333.4V157.5H1395.65C1404.15 157.5 1410.9 155.167 1415.9 150.5C1420.9 145.667 1423.4 139.583 1423.4 132.25V117.75C1423.4 109.083 1421.73 103.083 1418.4 99.75C1415.23 96.4167 1411.15 94.25 1406.15 93.25L1353.4 82.5C1349.57 81.8333 1346.48 80.3333 1344.15 78C1341.82 75.6667 1340.65 71.5833 1340.65 65.75V45.25C1340.65 39.4167 1342.73 34.5833 1346.9 30.75C1351.07 26.9167 1356.65 25 1363.65 25H1419.15V22.5Z" fill="black"/>
</svg>
