<svg width="1398" height="188" viewBox="0 0 1398 188" fill="none" xmlns="http://www.w3.org/2000/svg">
<path d="M94.75 97.5H83.5C80.8333 97.5 78.6667 98.3333 77 100C75.3333 101.5 73.4167 104.583 71.25 109.25L50.75 155.25C50.0833 156.917 49.0833 157.917 47.75 158.25C46.4167 158.583 45.1667 158.75 44 158.75H42.75C41.4167 158.75 40.1667 158.25 39 157.25C37.8333 156.083 37.1667 154.833 37 153.5L30.75 125C30.0833 121.833 29.6667 117.75 29.5 112.75C29.5 107.75 29.5 103.417 29.5 99.75V26.25H27V100C27 103.667 27 108 27 113C27.1667 118 27.5833 122.083 28.25 125.25L34.5 153.5C35.1667 156.167 36.1667 158.167 37.5 159.5C39 160.667 40.75 161.25 42.75 161.25H44.5C46 161.25 47.5833 161 49.25 160.5C50.9167 159.833 52.0833 158.667 52.75 157L73.25 110.5C75.25 106 76.9167 103.167 78.25 102C79.75 100.667 81.5 100 83.5 100H94.75C96.75 100 98.4167 100.667 99.75 102C101.25 103.167 103 106 105 110.5L125.5 157C126.167 158.667 127.333 159.833 129 160.5C130.667 161 132.25 161.25 133.75 161.25H135.5C137.5 161.25 139.167 160.667 140.5 159.5C142 158.167 143.083 156.167 143.75 153.5L150 125.25C150.667 122.083 151 118 151 113C151.167 108 151.25 103.667 151.25 100V26.25H148.75V99.75C148.75 103.417 148.667 107.75 148.5 112.75C148.5 117.75 148.167 121.833 147.5 125L141.25 153.5C141.083 154.833 140.417 156.083 139.25 157.25C138.083 158.25 136.833 158.75 135.5 158.75H134.25C133.083 158.75 131.833 158.583 130.5 158.25C129.167 157.917 128.167 156.917 127.5 155.25L107 109.25C104.833 104.583 102.917 101.5 101.25 100C99.5833 98.3333 97.4167 97.5 94.75 97.5ZM131.5 3.74999H168.75C171.917 3.74999 174.167 4.49999 175.5 5.99999C177 7.33333 177.75 9.58333 177.75 12.75V109.75C177.75 115.083 177.5 120.083 177 124.75C176.667 129.25 175.417 134.583 173.25 140.75L160.75 174.75C159.917 177.25 158.667 179.417 157 181.25C155.5 182.917 153.417 183.75 150.75 183.75H117.5C114.833 183.75 112.417 183.167 110.25 182C108.083 180.833 106.667 178.917 106 176.25L94.5 135.5C94 133.833 93.3333 132.75 92.5 132.25C91.8333 131.583 91 131.25 90 131.25H87.75C86.75 131.25 85.8333 131.583 85 132.25C84.3333 132.75 83.75 133.833 83.25 135.5L71.5 176.25C70.8333 178.75 69.5833 180.667 67.75 182C65.9167 183.167 63.6667 183.75 61 183.75H28C25.3333 183.75 23 182.917 21 181.25C19.1667 179.583 17.8333 177.417 17 174.75L4.5 140.25C2.33333 134.083 1 128.75 0.500001 124.25C0.166667 119.583 5.96046e-07 114.583 5.96046e-07 109.25V12.75C5.96046e-07 9.58333 0.666667 7.33333 2 5.99999C3.5 4.49999 5.83333 3.74999 9 3.74999H47.5C50.6667 3.74999 52.9167 4.49999 54.25 5.99999C55.75 7.33333 56.5 9.58333 56.5 12.75V104.75L71 73.25C72.3333 70.4167 74.0833 68.4167 76.25 67.25C78.4167 66.0833 81.0833 65.5 84.25 65.5H94.75C97.9167 65.5 100.583 66.0833 102.75 67.25C104.917 68.4167 106.667 70.4167 108 73.25L122.5 104.75V12.75C122.5 9.58333 123.167 7.33333 124.5 5.99999C126 4.49999 128.333 3.74999 131.5 3.74999ZM382.514 136.5C382.514 144.167 381.347 151.167 379.014 157.5C376.847 163.667 372.847 169 367.014 173.5C361.347 177.833 353.43 181.25 343.264 183.75C333.264 186.25 320.514 187.5 305.014 187.5C289.514 187.5 276.68 186.25 266.514 183.75C256.347 181.25 248.347 177.833 242.514 173.5C236.847 169 232.847 163.667 230.514 157.5C228.347 151.167 227.264 144.167 227.264 136.5V51.25C227.264 43.5833 228.347 36.6667 230.514 30.5C232.847 24.1667 236.847 18.75 242.514 14.25C248.347 9.74999 256.347 6.24999 266.514 3.74999C276.68 1.25 289.514 -3.57628e-06 305.014 -3.57628e-06C320.514 -3.57628e-06 333.264 1.25 343.264 3.74999C353.43 6.24999 361.347 9.74999 367.014 14.25C372.847 18.75 376.847 24.1667 379.014 30.5C381.347 36.6667 382.514 43.5833 382.514 51.25V136.5ZM355.264 130.75V57C355.264 47 351.68 38.9167 344.514 32.75C337.347 26.4167 324.014 23.25 304.514 23.25C285.014 23.25 271.764 26.4167 264.764 32.75C257.764 38.9167 254.264 47 254.264 57V130.75C254.264 140.75 257.764 148.917 264.764 155.25C271.764 161.417 285.014 164.5 304.514 164.5C324.014 164.5 337.347 161.417 344.514 155.25C351.68 148.917 355.264 140.75 355.264 130.75ZM256.764 130.75V57C256.764 47.6667 260.097 40.1667 266.764 34.5C273.43 28.6667 286.014 25.75 304.514 25.75C323.014 25.75 335.68 28.6667 342.514 34.5C349.347 40.1667 352.764 47.6667 352.764 57V130.75C352.764 140.083 349.347 147.667 342.514 153.5C335.68 159.167 323.014 162 304.514 162C286.014 162 273.43 159.167 266.764 153.5C260.097 147.667 256.764 140.083 256.764 130.75ZM284.014 127.5C284.014 130.833 285.264 133.667 287.764 136C290.264 138.167 296.014 139.25 305.014 139.25C314.014 139.25 319.764 138.167 322.264 136C324.764 133.667 326.014 130.833 326.014 127.5V60.25C326.014 57.0833 324.764 54.4167 322.264 52.25C319.764 49.9167 314.014 48.75 305.014 48.75C296.014 48.75 290.264 49.9167 287.764 52.25C285.264 54.4167 284.014 57.0833 284.014 60.25V127.5ZM518.34 28.75C527.173 28.75 533.673 31.1667 537.84 36C542.173 40.8333 544.34 47.0833 544.34 54.75V72.25C544.34 81.4167 542.59 88.5 539.09 93.5C535.59 98.5 528.673 101 518.34 101H463.84V28.75H518.34ZM490.84 48.75V80.75H509.59C513.923 80.75 516.84 79.6667 518.34 77.5C519.84 75.1667 520.59 72.3333 520.59 69V60.5C520.59 57.1667 519.84 54.4167 518.34 52.25C516.84 49.9167 513.923 48.75 509.59 48.75H490.84ZM463.84 161.25V103.25H534.59C544.09 103.25 551.09 105.333 555.59 109.5C560.09 113.5 562.34 119.583 562.34 127.75V161.25H564.84V127.75C564.84 119.083 562.34 112.5 557.34 108C552.34 103.333 544.757 101 534.59 101H531.84C537.84 99.1667 541.84 95.8333 543.84 91C545.84 86 546.84 79.6667 546.84 72V54.75C546.84 46.5833 544.507 39.8333 539.84 34.5C535.173 29 528.007 26.25 518.34 26.25H461.34V161.25H463.84ZM481.84 183.75H443.34C440.173 183.75 437.84 183.083 436.34 181.75C435.007 180.25 434.34 177.917 434.34 174.75V12.75C434.34 9.58333 435.007 7.33333 436.34 5.99999C437.84 4.49999 440.173 3.74999 443.34 3.74999H526.59C545.257 3.74999 558.09 7.66666 565.09 15.5C572.257 23.1667 575.84 33.1667 575.84 45.5V57C575.84 64 574.757 70 572.59 75C570.59 79.8333 567.007 83.3333 561.84 85.5C570.84 86.5 578.09 90.1667 583.59 96.5C589.257 102.833 592.09 111.25 592.09 121.75V174.75C592.09 177.917 591.34 180.25 589.84 181.75C588.507 183.083 586.257 183.75 583.09 183.75H544.34C541.173 183.75 538.84 183.083 537.34 181.75C536.007 180.25 535.34 177.917 535.34 174.75V136.5C535.34 132.833 534.59 130.167 533.09 128.5C531.757 126.667 529.34 125.75 525.84 125.75H490.84V174.75C490.84 177.917 490.09 180.25 488.59 181.75C487.257 183.083 485.007 183.75 481.84 183.75ZM669.881 161.25V95.25H737.131C746.298 95.25 753.214 96.9167 757.881 100.25C762.548 103.583 764.881 109.25 764.881 117.25V161.25H767.381V117.25C767.381 108.583 764.881 102.333 759.881 98.5C754.881 94.6667 747.298 92.75 737.131 92.75H726.881L755.631 26.25H752.881L724.131 92.75H669.881V26.25H667.381V161.25H669.881ZM687.881 183.75H649.131C645.964 183.75 643.631 183.083 642.131 181.75C640.798 180.25 640.131 177.917 640.131 174.75V12.75C640.131 9.58333 640.798 7.33333 642.131 5.99999C643.631 4.49999 645.964 3.74999 649.131 3.74999H687.881C691.048 3.74999 693.298 4.49999 694.631 5.99999C696.131 7.33333 696.881 9.58333 696.881 12.75V70.25H706.881L732.631 12C733.798 8.99999 735.381 6.91666 737.381 5.75C739.381 4.41666 741.964 3.74999 745.131 3.74999H783.631C786.464 3.74999 788.381 4.49999 789.381 5.99999C790.381 7.33333 790.298 9.33333 789.131 12L763.631 70.25C772.964 70.75 780.381 74.0833 785.881 80.25C791.548 86.25 794.381 94.25 794.381 104.25V174.75C794.381 177.917 793.631 180.25 792.131 181.75C790.798 183.083 788.548 183.75 785.381 183.75H746.881C743.714 183.75 741.381 183.083 739.881 181.75C738.548 180.25 737.881 177.917 737.881 174.75V126C737.881 123.333 737.214 121.25 735.881 119.75C734.548 118.25 732.548 117.5 729.881 117.5H696.881V174.75C696.881 177.917 696.131 180.25 694.631 181.75C693.298 183.083 691.048 183.75 687.881 183.75ZM999.154 136.5C999.154 144.167 997.988 151.167 995.654 157.5C993.488 163.667 989.488 169 983.654 173.5C977.988 177.833 970.071 181.25 959.904 183.75C949.904 186.25 937.154 187.5 921.654 187.5C906.154 187.5 893.321 186.25 883.154 183.75C872.988 181.25 864.988 177.833 859.154 173.5C853.488 169 849.488 163.667 847.154 157.5C844.988 151.167 843.904 144.167 843.904 136.5V51.25C843.904 43.5833 844.988 36.6667 847.154 30.5C849.488 24.1667 853.488 18.75 859.154 14.25C864.988 9.74999 872.988 6.24999 883.154 3.74999C893.321 1.25 906.154 -3.57628e-06 921.654 -3.57628e-06C937.154 -3.57628e-06 949.904 1.25 959.904 3.74999C970.071 6.24999 977.988 9.74999 983.654 14.25C989.488 18.75 993.488 24.1667 995.654 30.5C997.988 36.6667 999.154 43.5833 999.154 51.25V136.5ZM971.904 130.75V57C971.904 47 968.321 38.9167 961.154 32.75C953.988 26.4167 940.654 23.25 921.154 23.25C901.654 23.25 888.404 26.4167 881.404 32.75C874.404 38.9167 870.904 47 870.904 57V130.75C870.904 140.75 874.404 148.917 881.404 155.25C888.404 161.417 901.654 164.5 921.154 164.5C940.654 164.5 953.988 161.417 961.154 155.25C968.321 148.917 971.904 140.75 971.904 130.75ZM873.404 130.75V57C873.404 47.6667 876.738 40.1667 883.404 34.5C890.071 28.6667 902.654 25.75 921.154 25.75C939.654 25.75 952.321 28.6667 959.154 34.5C965.988 40.1667 969.404 47.6667 969.404 57V130.75C969.404 140.083 965.988 147.667 959.154 153.5C952.321 159.167 939.654 162 921.154 162C902.654 162 890.071 159.167 883.404 153.5C876.738 147.667 873.404 140.083 873.404 130.75ZM900.654 127.5C900.654 130.833 901.904 133.667 904.404 136C906.904 138.167 912.654 139.25 921.654 139.25C930.654 139.25 936.404 138.167 938.904 136C941.404 133.667 942.654 130.833 942.654 127.5V60.25C942.654 57.0833 941.404 54.4167 938.904 52.25C936.404 49.9167 930.654 48.75 921.654 48.75C912.654 48.75 906.904 49.9167 904.404 52.25C901.904 54.4167 900.654 57.0833 900.654 60.25V127.5ZM1204.23 136.5C1204.23 144.167 1203.06 151.167 1200.73 157.5C1198.56 163.667 1194.56 169 1188.73 173.5C1183.06 177.833 1175.23 181.25 1165.23 183.75C1155.23 186.25 1142.48 187.5 1126.98 187.5C1111.48 187.5 1098.73 186.25 1088.73 183.75C1078.73 181.25 1070.81 177.833 1064.98 173.5C1059.31 169 1055.31 163.667 1052.98 157.5C1050.81 151.167 1049.73 144.167 1049.73 136.5V12.75C1049.73 9.58333 1050.4 7.33333 1051.73 5.99999C1053.23 4.49999 1055.56 3.74999 1058.73 3.74999H1097.98C1101.15 3.74999 1103.4 4.49999 1104.73 5.99999C1106.23 7.33333 1106.98 9.58333 1106.98 12.75V126.75C1106.98 130.083 1108.23 132.917 1110.73 135.25C1113.23 137.417 1118.81 138.5 1127.48 138.5C1136.31 138.5 1141.98 137.417 1144.48 135.25C1146.98 132.917 1148.23 130.083 1148.23 126.75V12.75C1148.23 9.58333 1148.9 7.33333 1150.23 5.99999C1151.73 4.49999 1154.06 3.74999 1157.23 3.74999H1195.23C1198.4 3.74999 1200.65 4.49999 1201.98 5.99999C1203.48 7.33333 1204.23 9.58333 1204.23 12.75V136.5ZM1077.23 26.25V130.5C1077.23 140.5 1080.65 148.667 1087.48 155C1094.48 161.167 1107.73 164.25 1127.23 164.25C1146.73 164.25 1159.98 161.167 1166.98 155C1173.98 148.667 1177.48 140.5 1177.48 130.5V26.25H1174.98V130.5C1174.98 139.833 1171.65 147.417 1164.98 153.25C1158.31 158.917 1145.73 161.75 1127.23 161.75C1108.73 161.75 1096.15 158.917 1089.48 153.25C1082.98 147.417 1079.73 139.833 1079.73 130.5V26.25H1077.23ZM1342.5 183.75H1302C1298.84 183.75 1296.5 183.083 1295 181.75C1293.67 180.25 1293 177.917 1293 174.75V52H1256.25C1253.09 52 1250.75 51.3333 1249.25 50C1247.92 48.5 1247.25 46.1667 1247.25 43V12.75C1247.25 9.58333 1247.92 7.33333 1249.25 5.99999C1250.75 4.49999 1253.09 3.74999 1256.25 3.74999H1388.25C1391.42 3.74999 1393.67 4.49999 1395 5.99999C1396.5 7.33333 1397.25 9.58333 1397.25 12.75V43C1397.25 46.1667 1396.5 48.5 1395 50C1393.67 51.3333 1391.42 52 1388.25 52H1351.5V174.75C1351.5 177.917 1350.75 180.25 1349.25 181.75C1347.92 183.083 1345.67 183.75 1342.5 183.75ZM1321 161.25H1323.5V28.75H1374.75V26.25H1269.75V28.75H1321V161.25Z" fill="black"/>
</svg>
